<svg width="30" height="30" viewBox="0 0 30 30" fill="none" xmlns="http://www.w3.org/2000/svg">
<path d="M13.5515 16.447C13.2967 16.1926 12.993 15.9925 12.6587 15.8587L2.0854 11.6187C1.95916 11.568 1.85143 11.4799 1.77668 11.3663C1.70193 11.2526 1.66373 11.1189 1.66721 10.9829C1.67069 10.8469 1.71569 10.7152 1.79616 10.6056C1.87663 10.4959 1.98873 10.4135 2.1174 10.3693L27.4507 1.70266C27.5689 1.65999 27.6967 1.65184 27.8193 1.67918C27.9419 1.70652 28.0542 1.76821 28.143 1.85703C28.2319 1.94585 28.2935 2.05813 28.3209 2.18073C28.3482 2.30333 28.3401 2.43118 28.2974 2.54933L19.6307 27.8827C19.5866 28.0113 19.5042 28.1234 19.3945 28.2039C19.2848 28.2844 19.1532 28.3294 19.0172 28.3328C18.8812 28.3363 18.7474 28.2981 18.6338 28.2234C18.5201 28.1486 18.4321 28.0409 18.3814 27.9147L14.1414 17.3387C14.007 17.0047 13.8063 16.7013 13.5515 16.447ZM13.5515 16.447L28.1387 1.86266" stroke="#DBDEE0" stroke-width="2" stroke-linecap="round" stroke-linejoin="round"/>
</svg>
